# xmcd
#
# Track frame offsets: 
#        150
#        24198
#        45952
#        68969
#        85965
#        113403
#        151202
#
# Disc length: 2300 seconds
#
# Revision: 1
# Processed by: cddbd v1.5.2PL0 Copyright (c) Steve Scherf et al.
# Submitted via: ExactAudioCopy v0.95b4
#
DISCID=4308fa07
DTITLE=Oscar Peterson Trio with Herb Ellis - Hello Herbie
DYEAR=1970
DGENRE=Bop
TTITLE0=Naptown Blues
TTITLE1=Exactly like You
TTITLE2=Seven Come Eleven
TTITLE3=Hamp's Blues
TTITLE4=Blues for H.G.
TTITLE5=A Lovely Way to Spend an Evening
TTITLE6=Day by Day
EXTD=Oscar Peterson (1925/2007): piano\nHerb Ellis (b.1921): guitar\nS
EXTD=am Jones (1924/1981): bass\nBob Durham (b.1937): drums\nRecorded 
EXTD=at MPS-Studio, Villingen DE-BW, 1969-11-05/06.\nProduced and engi
EXTD=neered by Hans Georg Brunner-Schwer (1927/2004) - recording direct
EXTD=ed by Willy Fruth.\nOriginally issued as MPS LP 15 262 (1970).\nR
EXTD=eissue produced by Matthias Künnecke.\nDigitally remastered by Wi
EXTD=llem Makkee at Emil Berliner Studios, Langenhagen DE-NI, under th
EXTD=e supervision of Hans Georg Brunner-Schwer.\nCD: Verve/MPS B00053
EXTD=97-02 (2005-10-18), UPC 602498270158.
EXTT0=(Wes Montgomery)
EXTT1=(Jimmy McHugh/Dorothy Fields)
EXTT2=(Benny Goodman/Charlie Christian/Fletcher Henderson)
EXTT3=(Hampton Hawes)
EXTT4=(Oscar Peterson)
EXTT5=(Jimmy McHugh/Harold Adamson)
EXTT6=(Sammy Cahn/Paul Weston/Axel Stordahl)
PLAYORDER=
